<svg height="496pt" viewBox="0 -4 496 496" width="496pt" xmlns="http://www.w3.org/2000/svg"><path d="m200.855469 200h93.59375l.03125-.023438c7.542969-13.015624 21.007812-22.128906 36.71875-23.695312l.074219-.050781c-4.273438-6.949219-11.160157-12.214844-19.511719-14.292969l-39.761719-9.9375-.015625-14.464844c3.230469-1.871094 6.183594-4.152344 8.878906-6.6875l6.738281 3.375 22.621094-22.621094-5.269531-10.503906c1.542969-3.007812 2.871094-6.144531 3.925781-9.410156l11.121094-3.6875v-32l-11.121094-3.6875c-1.054687-3.265625-2.382812-6.402344-3.925781-9.410156l5.269531-10.503906-22.621094-22.621094-10.503906 5.269531c-3.007812-1.542969-6.144531-2.871094-9.410156-3.925781l-3.6875-11.121094h-32l-3.6875 11.121094c-3.265625 1.054687-6.402344 2.382812-9.410156 3.925781l-10.503906-5.269531-22.621094 22.621094 5.269531 10.503906c-1.542969 3.007812-2.871094 6.144531-3.925781 9.410156l-11.121094 3.6875v32l11.121094 3.6875c1.054687 3.265625 2.382812 6.402344 3.925781 9.410156l-5.269531 10.503906 22.621094 22.621094 6.738281-3.382812c2.695312 2.535156 5.640625 4.816406 8.863281 6.679687v14.480469l-39.761719 9.9375c-8.34375 2.085938-15.230469 7.34375-19.503906 14.292969l.105469.066406c15.40625 1.597656 28.425781 10.832031 36.015625 23.703125zm0 0" fill="#f0bc5e"/><path d="m96 392h16v16h-16zm0 0"/><path d="m64 392h16v16h-16zm0 0"/><path d="m32 392h16v16h-16zm0 0"/><path d="m456 104h-149.585938l3.816407 7.601562-8.40625 8.398438h154.175781c13.230469 0 24 10.769531 24 24v232h-341.574219l-24-16h-98.425781v-216c0-13.230469 10.769531-24 24-24h154.175781l-8.398437-8.398438 3.808594-7.601562h-149.585938c-22.054688 0-40 17.945312-40 40v256c0 22.054688 17.945312 40 40 40h104v32h-32v16h272v-16h-32v-32h104c22.054688 0 40-17.945312 40-40v-256c0-22.054688-17.945312-40-40-40zm0 320h-120v48h-176v-32h160v-16h-280c-13.230469 0-24-10.769531-24-24v-24h93.574219l24 16h346.425781v8c0 13.230469-10.769531 24-24 24zm0 0"/><path d="m121 183.808594c-10.960938 10.640625-17 24.910156-17 40.191406v16c0 18.304688 9.089844 35.488281 24 45.902344v3.851562l-34.65625 8.660156c-17.28125 4.320313-29.34375 19.777344-29.34375 37.585938v8h368v-8c0-17.808594-12.0625-33.265625-29.34375-37.585938l-34.664062-8.660156v-3.84375c14.910156-10.414062 24.007812-27.597656 24.007812-45.910156v-13.992188c0-31.078124-24.351562-57.085937-54.28125-57.984374-15.429688-.550782-29.757812 5.144531-40.71875 15.785156s-17 24.910156-17 40.191406v16c0 18.304688 9.089844 35.488281 24 45.902344v3.851562l-34.65625 8.660156c-8.757812 2.195313-16.160156 7.257813-21.34375 14.027344-5.183594-6.769531-12.585938-11.832031-21.34375-14.027344l-34.664062-8.660156v-3.84375c14.910156-10.414062 24.007812-27.597656 24.007812-45.910156v-13.992188c0-31.078124-24.351562-57.085937-54.28125-57.984374-15.460938-.542969-29.757812 5.144531-40.71875 15.785156zm152.214844 130.136718 46.785156-11.699218v-25.324219l-3.992188-2.3125c-12.34375-7.152344-20.007812-20.417969-20.007812-34.609375v-16c0-10.910156 4.3125-21.113281 12.152344-28.703125 7.832031-7.601563 18.199218-11.59375 29.085937-11.273437 21.371094.640624 38.761719 19.472656 38.761719 41.984374v13.992188c0 14.199219-7.671875 27.464844-20.023438 34.609375l-4 2.320313.03125 25.316406 46.777344 11.699218c7.421875 1.855469 13.199219 7.214844 15.773438 14.054688h-157.109375c2.566406-6.839844 8.351562-12.199219 15.765625-14.054688zm-73.214844-87.9375v13.992188c0 14.199219-7.671875 27.464844-20.023438 34.609375l-4 2.320313.03125 25.316406 46.777344 11.699218c7.421875 1.855469 13.199219 7.214844 15.773438 14.054688h-157.109375c2.566406-6.839844 8.351562-12.199219 15.773437-14.054688l46.777344-11.699218v-25.324219l-3.992188-2.3125c-12.34375-7.152344-20.007812-20.417969-20.007812-34.609375v-16c0-10.910156 4.3125-21.113281 12.152344-28.703125 7.832031-7.601563 18.230468-11.59375 29.085937-11.273437 21.371094.640624 38.761719 19.472656 38.761719 41.984374zm0 0"/><path d="m248 112c22.054688 0 40-17.945312 40-40s-17.945312-40-40-40-40 17.945312-40 40 17.945312 40 40 40zm0-64c13.230469 0 24 10.769531 24 24s-10.769531 24-24 24-24-10.769531-24-24 10.769531-24 24-24zm0 0"/></svg>