<svg xmlns="http://www.w3.org/2000/svg" version="1.1" xmlns:xlink="http://www.w3.org/1999/xlink" xmlns:svgjs="http://svgjs.dev/svgjs" width="1000" height="121" viewBox="0 0 1000 121"><g transform="matrix(1,0,0,1,-0.6060606060606233,-0.24849736613368378)"><svg viewBox="0 0 396 48" data-background-color="#070707" preserveAspectRatio="xMidYMid meet" height="121" width="1000" xmlns="http://www.w3.org/2000/svg" xmlns:xlink="http://www.w3.org/1999/xlink"><g id="tight-bounds" transform="matrix(1,0,0,1,0.2400000000000091,0.09857746755716335)"><svg viewBox="0 0 395.52 47.8028450648857" height="47.8028450648857" width="395.52"><g><svg viewBox="0 0 504.98533277869757 61.03290762252181" height="47.8028450648857" width="395.52"><g transform="matrix(1,0,0,1,0,8.435083470261699)"><svg viewBox="0 0 395.52 44.162740681998415" height="44.162740681998415" width="395.52"><g><svg viewBox="0 0 395.52 44.162740681998415" height="44.162740681998415" width="395.52"><g><svg viewBox="0 0 395.52 44.162740681998415" height="44.162740681998415" width="395.52"><g transform="matrix(1,0,0,1,0,0)"><svg width="395.52" viewBox="3.7 -34.6 315.22 35.2" height="44.162740681998415" data-palette-color="#000000"><path d="M17.25-11.4L10.6-11.4 10.6 0 3.7 0 3.7-34 16.9-34Q28.9-34 28.9-22.8L28.9-22.8Q28.9-16.15 23.9-13L23.9-13 28.75 0 21.2 0 17.25-11.4ZM17-17.3Q19.45-17.3 20.65-18.8 21.85-20.3 21.85-22.75 21.85-25.2 20.58-26.65 19.3-28.1 16.9-28.1L16.9-28.1 10.6-28.1 10.6-17.3 17-17.3ZM41.6 0L34.7 0 34.7-34 41.6-34 41.6 0ZM61.5-9.9L61.5-9.9 55.9-9.9 55.9 0 49 0 49-34 61.5-34Q73.59-34 73.59-22.2L73.59-22.2Q73.59-16.25 70.52-13.08 67.45-9.9 61.5-9.9ZM55.9-28.1L55.9-15.8 61.45-15.8Q66.59-15.8 66.59-22.2L66.59-22.2Q66.59-25.35 65.34-26.73 64.09-28.1 61.45-28.1L61.45-28.1 55.9-28.1ZM90.94-9.9L90.94-9.9 85.34-9.9 85.34 0 78.44 0 78.44-34 90.94-34Q103.04-34 103.04-22.2L103.04-22.2Q103.04-16.25 99.97-13.08 96.89-9.9 90.94-9.9ZM85.34-28.1L85.34-15.8 90.89-15.8Q96.04-15.8 96.04-22.2L96.04-22.2Q96.04-25.35 94.79-26.73 93.54-28.1 90.89-28.1L90.89-28.1 85.34-28.1ZM127.24-6.1L127.24 0 107.89 0 107.89-34 114.79-34 114.79-6.1 127.24-6.1ZM153.49 0L131.49 0 131.49-34 153.49-34 153.49-28 138.39-28 138.39-20.05 150.49-20.05 150.49-14.15 138.39-14.15 138.39-6 153.49-6 153.49 0ZM169.64-28.6L169.64-28.6Q164.19-28.6 164.19-25L164.19-25Q164.19-23.4 165.54-22.55 166.89-21.7 171.86-20.1 176.84-18.5 178.84-16.48 180.84-14.45 180.84-10.25L180.84-10.25Q180.84-4.9 177.59-2.15 174.34 0.6 169.09 0.6L169.09 0.6Q165.19 0.6 159.54-0.6L159.54-0.6 157.74-0.95 158.44-6.3Q165.14-5.4 168.69-5.4L168.69-5.4Q173.99-5.4 173.99-9.8L173.99-9.8Q173.99-11.4 172.76-12.3 171.54-13.2 167.89-14.25L167.89-14.25Q162.09-15.9 159.71-18.18 157.34-20.45 157.34-24.5L157.34-24.5Q157.34-29.6 160.44-32.1 163.54-34.6 168.94-34.6L168.94-34.6Q172.64-34.6 178.34-33.6L178.34-33.6 180.14-33.25 179.59-27.8Q172.54-28.6 169.64-28.6ZM192.43-27.9L183.33-27.9 183.33-34 208.33-34 208.33-27.9 199.33-27.9 199.33 0 192.43 0 192.43-27.9ZM214.88 0L207.98 0 215.63-34 228.73-34 236.38 0 229.48 0 228.13-6.15 216.23-6.15 214.88 0ZM223.38-28.3L220.98-28.3 217.53-12.15 226.83-12.15 223.38-28.3ZM261.88-6.2L262.03-0.55Q256.73 0.6 252.48 0.6 248.23 0.6 245.68-0.45 243.13-1.5 241.68-3.8 240.23-6.1 239.68-9.2 239.13-12.3 239.13-17L239.13-17Q239.13-26.85 241.9-30.73 244.68-34.6 252.13-34.6L252.13-34.6Q256.43-34.6 262.08-33.25L262.08-33.25 261.88-27.75Q256.93-28.5 253.65-28.5 250.38-28.5 248.98-27.63 247.58-26.75 246.9-24.3 246.23-21.85 246.23-15.95 246.23-10.05 247.6-7.78 248.98-5.5 253.1-5.5 257.23-5.5 261.88-6.2L261.88-6.2ZM274.53-13.05L274.53 0 267.63 0 267.63-34 274.53-34 274.53-19.05 279.13-19.55 284.73-34 292.57-34 285.18-16.95 292.78 0 284.82 0 279.13-13.55 274.53-13.05ZM307.72-28.6L307.72-28.6Q302.27-28.6 302.27-25L302.27-25Q302.27-23.4 303.62-22.55 304.97-21.7 309.95-20.1 314.92-18.5 316.92-16.48 318.92-14.45 318.92-10.25L318.92-10.25Q318.92-4.9 315.67-2.15 312.42 0.6 307.17 0.6L307.17 0.6Q303.27 0.6 297.62-0.6L297.62-0.6 295.82-0.95 296.52-6.3Q303.22-5.4 306.77-5.4L306.77-5.4Q312.07-5.4 312.07-9.8L312.07-9.8Q312.07-11.4 310.85-12.3 309.62-13.2 305.97-14.25L305.97-14.25Q300.17-15.9 297.8-18.18 295.42-20.45 295.42-24.5L295.42-24.5Q295.42-29.6 298.52-32.1 301.62-34.6 307.02-34.6L307.02-34.6Q310.72-34.6 316.42-33.6L316.42-33.6 318.22-33.25 317.67-27.8Q310.62-28.6 307.72-28.6Z" opacity="1" transform="matrix(1,0,0,1,0,0)" fill="#000000" class="undefined-text-0" data-fill-palette-color="primary" id="text-0"></path></svg></g></svg></g></svg></g></svg></g><g transform="matrix(1,0,0,1,405.94576316924343,0)"><svg viewBox="0 0 99.03956960945415 61.03290762252181" height="61.03290762252181" width="99.03956960945415"><g><svg xmlns="http://www.w3.org/2000/svg" xmlns:xlink="http://www.w3.org/1999/xlink" version="1.1" x="0" y="0" viewBox="-53.14701490362147 843.0657577132843 79.29603211824814 48.86599792577829" enable-background="new -63.5 817.5 100 100" xml:space="preserve" height="61.03290762252181" width="99.03956960945415" class="icon-icon-0" data-fill-palette-color="accent" id="icon-0"><g fill="#ff851b" data-fill-palette-color="accent"><g fill="#ff851b" data-fill-palette-color="accent"><g fill="#ff851b" data-fill-palette-color="accent"><g fill="#ff851b" data-fill-palette-color="accent"><path fill-rule="evenodd" clip-rule="evenodd" d="M21.599 891.905c-3.692 0.27-6.587-1.547-9.471-3.486-0.47-0.315-1.471-0.387-1.924-0.099-4.82 3.067-10.031 4.42-15.618 3.113-2.395-0.561-4.633-1.904-6.847-3.076-1.01-0.534-1.623-0.549-2.625 0.068-2.421 1.49-4.927 2.938-7.867 3.131-1.666 0.109-3.343 0.05-5.016 0.024-3.106-0.046-5.713-1.448-8.197-3.126-1.244-0.839-2.365-0.882-3.629 0.025-3.05 2.19-6.421 3.508-10.249 3.316-1.529-0.075-3.173-1.642-3.297-3.038-0.112-1.268 1.357-2.771 2.996-3.062 3.657-0.65 6.888-1.909 9.247-5.094 1.68-2.27 5.168-1.802 6.882 0.476 2.511 3.338 5.869 5.334 10.099 4.568 2.885-0.521 5.417-2.148 7.246-4.612 1.467-1.978 4.529-2.312 6.126-0.488 1.775 2.027 3.73 3.903 6.292 4.593 1.962 0.527 4.282 0.704 6.202 0.171 2.521-0.701 4.617-2.48 6.267-4.651 1.37-1.801 4.503-1.524 5.951 0.277 2.257 2.809 5.06 4.759 8.821 5.079 0.85 0.071 2.016 0.419 2.4 1.036 0.575 0.926 0.87 2.239 0.724 3.311-0.076 0.556-1.308 1.094-2.11 1.366C23.264 891.977 22.404 891.86 21.599 891.905z" fill="#ff851b" data-fill-palette-color="accent"></path></g></g><g fill="#ff851b" data-fill-palette-color="accent"><g fill="#ff851b" data-fill-palette-color="accent"><path fill-rule="evenodd" clip-rule="evenodd" d="M21.599 874.18c-3.692 0.27-6.587-1.547-9.471-3.485-0.47-0.316-1.471-0.389-1.924-0.1-4.82 3.068-10.031 4.42-15.618 3.113-2.395-0.561-4.633-1.904-6.847-3.075-1.01-0.535-1.623-0.549-2.625 0.068-2.421 1.49-4.927 2.938-7.867 3.131-1.666 0.108-3.343 0.05-5.016 0.024-3.106-0.046-5.713-1.449-8.197-3.126-1.244-0.839-2.365-0.883-3.629 0.024-3.05 2.19-6.421 3.509-10.249 3.317-1.529-0.076-3.173-1.643-3.297-3.039-0.112-1.268 1.357-2.77 2.996-3.061 3.657-0.651 6.888-1.91 9.247-5.095 1.68-2.27 5.168-1.801 6.882 0.477 2.511 3.337 5.869 5.333 10.099 4.567 2.885-0.521 5.417-2.147 7.246-4.611 1.467-1.978 4.529-2.313 6.126-0.488 1.775 2.027 3.73 3.902 6.292 4.591 1.962 0.529 4.282 0.705 6.202 0.172 2.521-0.701 4.617-2.48 6.267-4.65 1.37-1.802 4.503-1.524 5.951 0.277 2.257 2.808 5.06 4.759 8.821 5.078 0.85 0.072 2.016 0.419 2.4 1.036 0.575 0.925 0.87 2.239 0.724 3.312-0.076 0.555-1.308 1.093-2.11 1.366C23.264 874.254 22.404 874.136 21.599 874.18z" fill="#ff851b" data-fill-palette-color="accent"></path></g></g><g fill="#ff851b" data-fill-palette-color="accent"><g fill="#ff851b" data-fill-palette-color="accent"><path fill-rule="evenodd" clip-rule="evenodd" d="M21.599 855.855c-3.692 0.271-6.587-1.546-9.471-3.485-0.47-0.316-1.471-0.388-1.924-0.099-4.82 3.068-10.031 4.42-15.618 3.112-2.395-0.56-4.633-1.904-6.847-3.075-1.01-0.535-1.623-0.549-2.625 0.068-2.421 1.491-4.927 2.938-7.867 3.131-1.666 0.109-3.343 0.05-5.016 0.024-3.106-0.045-5.713-1.449-8.197-3.125-1.244-0.84-2.365-0.883-3.629 0.024-3.05 2.19-6.421 3.508-10.249 3.316-1.529-0.076-3.173-1.643-3.297-3.039-0.112-1.267 1.357-2.77 2.996-3.061 3.657-0.651 6.888-1.909 9.247-5.095 1.68-2.269 5.168-1.802 6.882 0.477 2.511 3.338 5.869 5.334 10.099 4.568 2.885-0.522 5.417-2.147 7.246-4.612 1.467-1.977 4.529-2.312 6.126-0.488 1.775 2.027 3.73 3.902 6.292 4.592 1.962 0.528 4.282 0.705 6.202 0.172 2.521-0.701 4.617-2.481 6.267-4.651 1.37-1.802 4.503-1.524 5.951 0.277 2.257 2.809 5.06 4.76 8.821 5.078 0.85 0.072 2.016 0.42 2.4 1.037 0.575 0.925 0.87 2.239 0.724 3.311-0.076 0.556-1.308 1.093-2.11 1.366C23.264 855.929 22.404 855.811 21.599 855.855z" fill="#ff851b" data-fill-palette-color="accent"></path></g></g></g></g></svg></g></svg></g></svg></g><defs></defs></svg><rect width="395.52" height="47.8028450648857" fill="none" stroke="none" visibility="hidden"></rect></g></svg></g></svg>